<?xml version="1.0" encoding="UTF-8" standalone="no"?>
<!-- Created with Inkscape (http://www.inkscape.org/) -->

<svg
   xmlns:dc="http://purl.org/dc/elements/1.1/"
   xmlns:cc="http://creativecommons.org/ns#"
   xmlns:rdf="http://www.w3.org/1999/02/22-rdf-syntax-ns#"
   xmlns:svg="http://www.w3.org/2000/svg"
   xmlns="http://www.w3.org/2000/svg"
   xmlns:sodipodi="http://sodipodi.sourceforge.net/DTD/sodipodi-0.dtd"
   xmlns:inkscape="http://www.inkscape.org/namespaces/inkscape"
   width="92.615219mm"
   height="39.036064mm"
   viewBox="0 0 92.615219 39.036064"
   version="1.1"
   id="svg929"
   inkscape:version="0.92.4 (5da689c313, 2019-01-14)"
   sodipodi:docname="logo_ewilose.svg">
  <defs
     id="defs923" />
  <sodipodi:namedview
     id="base"
     pagecolor="#ffffff"
     bordercolor="#666666"
     borderopacity="1.0"
     inkscape:pageopacity="0.0"
     inkscape:pageshadow="2"
     inkscape:zoom="1.4"
     inkscape:cx="-67.290124"
     inkscape:cy="-37.269856"
     inkscape:document-units="mm"
     inkscape:current-layer="layer1"
     showgrid="false"
     inkscape:window-width="1920"
     inkscape:window-height="1001"
     inkscape:window-x="-9"
     inkscape:window-y="-9"
     inkscape:window-maximized="1" />
  <metadata
     id="metadata926">
    <rdf:RDF>
      <cc:Work
         rdf:about="">
        <dc:format>image/svg+xml</dc:format>
        <dc:type
           rdf:resource="http://purl.org/dc/dcmitype/StillImage" />
        <dc:title></dc:title>
      </cc:Work>
    </rdf:RDF>
  </metadata>
  <g
     inkscape:label="Calque 1"
     inkscape:groupmode="layer"
     id="layer1"
     transform="translate(-5.0866344,-192.86756)">
    <g
       id="g1541"
       transform="translate(14.741071,5.1026786)">
      <g
         style="fill:#4fb8fd;fill-opacity:1;stroke:none"
         id="g1526">
        <path
           style="fill:#4fb8fd;fill-opacity:1;stroke:none;stroke-width:0.26458332px;stroke-linecap:butt;stroke-linejoin:miter;stroke-opacity:1"
           d="m 24.856066,192.23034 c -57.624324,-12.55386 -35.460833,63.2371 10.811171,22.33083 -24.460679,18.69434 -53.336063,-9.51834 -20.165605,-14.98092 -8.257814,-2.94805 -13.0637745,1.10161 -15.76890187,2.6727 0.0820915,-5.93791 4.17730337,-11.18854 25.12333587,-10.02261 z"
           id="path1508"
           inkscape:connector-curvature="0"
           sodipodi:nodetypes="ccccc" />
        <path
           style="fill:#4fb8fd;fill-opacity:1;stroke:none;stroke-width:0.26458332px;stroke-linecap:butt;stroke-linejoin:miter;stroke-opacity:1"
           d="m 1.7817173,210.57884 c 2.4936931,0.6878 7.1424207,-2.29587 11.2646977,9.53135 2.103874,-1.60969 1.701411,-1.26723 3.547755,0.46301 2.099667,-5.21174 4.873727,-9.6555 9.568495,-10.1228 -7.577792,-1.72831 -11.495117,17.12451 -10.629998,0.75606 -2.991973,17.44742 -0.899056,-3.72503 -13.7509497,-0.62762 z"
           id="path1510"
           inkscape:connector-curvature="0"
           sodipodi:nodetypes="cccccc" />
        <path
           style="fill:#4fb8fd;fill-opacity:1;stroke:none;stroke-width:0.26458332px;stroke-linecap:butt;stroke-linejoin:miter;stroke-opacity:1"
           d="m 26.162665,210.4504 c 1.106388,-0.38163 0.881361,0.76571 1.737252,-0.0334 -3.55078,14.50009 4.724101,5.2124 7.76732,4.14418 -4.324847,3.70146 -10.447237,7.34932 -6.86039,-5.92666 -1.077649,0.84536 -2.163194,1.82291 -2.644182,1.81589 z"
           id="path1512"
           inkscape:connector-curvature="0"
           sodipodi:nodetypes="ccccc" />
        <path
           style="fill:#4fb8fd;fill-opacity:1;stroke:none;stroke-width:0.26458332px;stroke-linecap:butt;stroke-linejoin:miter;stroke-opacity:1"
           d="m 28.844308,204.18322 c -0.763392,1.32777 -2.505999,2.89128 -0.07087,3.44903 2.496039,-1.10213 0.585162,-2.28901 0.07087,-3.44903 z"
           id="path1514"
           inkscape:connector-curvature="0"
           sodipodi:nodetypes="ccc" />
      </g>
      <g
         style="fill:#fa5e62;fill-opacity:1;stroke:none;stroke-opacity:1"
         id="g1530">
        <path
           style="fill:#fa5e62;fill-opacity:1;stroke:none;stroke-width:0.26458332px;stroke-linecap:butt;stroke-linejoin:miter;stroke-opacity:1"
           d="m 38.137795,195.26627 c 7.68009,-0.20998 12.209095,-3.46367 15.08125,-7.3691 -4.772861,26.34819 -15.463011,27.17074 -23.086122,33.96923 3.31517,4.18255 16.129744,-7.27336 34.279031,-2.64184 -14.760425,-2.24426 -25.515215,12.2964 -39.238744,3.01497 7.257304,-5.48943 21.753604,-11.79659 24.472105,-28.47239 -3.679347,2.10922 -8.415488,2.24351 -11.50752,1.49913 z"
           id="path1516"
           inkscape:connector-curvature="0"
           sodipodi:nodetypes="ccccccc" />
        <path
           style="fill:#fa5e62;fill-opacity:1;stroke:none;stroke-width:0.26458332px;stroke-linecap:butt;stroke-linejoin:miter;stroke-opacity:1"
           d="m 49.562128,209.49851 c -4.446708,4.45393 -4.454303,18.1164 5.905877,-1.13393 -3.580926,-3.3984 -10.635273,2.94433 2.834822,5.38617 -1.982031,-1.38154 -6.989638,-3.25904 -6.047619,-4.77196 3.957088,-0.17245 -7.196603,16.41674 -2.69308,0.51972 z"
           id="path1518"
           inkscape:connector-curvature="0"
           sodipodi:nodetypes="ccccc" />
      </g>
      <path
         sodipodi:nodetypes="ccccccccc"
         inkscape:connector-curvature="0"
         id="path1520"
         d="m 60.948659,213.56175 c 9.857332,-2.38704 18.225295,-6.39732 12.473215,-25.79687 17.378669,23.44106 7.208116,37.21586 -0.705839,36.63078 -12.508156,-1.00588 -6.1806,-10.33648 -2.695946,-12.4403 5.856839,-2.21424 1.779892,7.2532 -1.795388,6.35472 2.448539,-1.69671 3.197799,-3.99764 1.984375,-4.15774 -5.425375,2.13246 -2.237647,8.38217 2.598587,8.15012 14.841952,-2.37056 5.409755,-23.64831 3.165551,-28.77344 4.307182,19.85538 -12.78962,19.76113 -15.024555,20.03273 z"
         style="fill:#6efd91;fill-opacity:1;stroke:none;stroke-width:0.26458332px;stroke-linecap:butt;stroke-linejoin:miter;stroke-opacity:1" />
    </g>
  </g>
</svg>
